<svg width="13" height="16" viewBox="0 0 13 16" fill="none" xmlns="http://www.w3.org/2000/svg">
<path d="M4 6.4H4.8C5.01217 6.4 5.21566 6.31571 5.36568 6.16569C5.51571 6.01566 5.6 5.81217 5.6 5.6C5.6 5.38783 5.51571 5.18434 5.36568 5.03431C5.21566 4.88429 5.01217 4.8 4.8 4.8H4C3.78783 4.8 3.58434 4.88429 3.43431 5.03431C3.28429 5.18434 3.2 5.38783 3.2 5.6C3.2 5.81217 3.28429 6.01566 3.43431 6.16569C3.58434 6.31571 3.78783 6.4 4 6.4ZM4 8C3.78783 8 3.58434 8.08429 3.43431 8.23431C3.28429 8.38434 3.2 8.58783 3.2 8.8C3.2 9.01217 3.28429 9.21566 3.43431 9.36569C3.58434 9.51571 3.78783 9.6 4 9.6H8.8C9.01217 9.6 9.21566 9.51571 9.36568 9.36569C9.51571 9.21566 9.6 9.01217 9.6 8.8C9.6 8.58783 9.51571 8.38434 9.36568 8.23431C9.21566 8.08429 9.01217 8 8.8 8H4ZM12.8 5.552C12.7917 5.47851 12.7756 5.4061 12.752 5.336V5.264C12.7135 5.18174 12.6622 5.10613 12.6 5.04L7.8 0.24C7.73387 0.177773 7.65826 0.126465 7.576 0.0879999C7.55212 0.0846081 7.52788 0.0846081 7.504 0.0879999C7.42273 0.041393 7.33298 0.0114754 7.24 0H2.4C1.76348 0 1.15303 0.252856 0.702944 0.702944C0.252856 1.15303 0 1.76348 0 2.4V13.6C0 14.2365 0.252856 14.847 0.702944 15.2971C1.15303 15.7471 1.76348 16 2.4 16H10.4C11.0365 16 11.647 15.7471 12.0971 15.2971C12.5471 14.847 12.8 14.2365 12.8 13.6V5.6C12.8 5.6 12.8 5.6 12.8 5.552ZM8 2.728L10.072 4.8H8.8C8.58783 4.8 8.38434 4.71571 8.23431 4.56569C8.08428 4.41566 8 4.21217 8 4V2.728ZM11.2 13.6C11.2 13.8122 11.1157 14.0157 10.9657 14.1657C10.8157 14.3157 10.6122 14.4 10.4 14.4H2.4C2.18783 14.4 1.98434 14.3157 1.83431 14.1657C1.68429 14.0157 1.6 13.8122 1.6 13.6V2.4C1.6 2.18783 1.68429 1.98434 1.83431 1.83431C1.98434 1.68429 2.18783 1.6 2.4 1.6H6.4V4C6.4 4.63652 6.65286 5.24697 7.10294 5.69706C7.55303 6.14714 8.16348 6.4 8.8 6.4H11.2V13.6ZM8.8 11.2H4C3.78783 11.2 3.58434 11.2843 3.43431 11.4343C3.28429 11.5843 3.2 11.7878 3.2 12C3.2 12.2122 3.28429 12.4157 3.43431 12.5657C3.58434 12.7157 3.78783 12.8 4 12.8H8.8C9.01217 12.8 9.21566 12.7157 9.36568 12.5657C9.51571 12.4157 9.6 12.2122 9.6 12C9.6 11.7878 9.51571 11.5843 9.36568 11.4343C9.21566 11.2843 9.01217 11.2 8.8 11.2Z" fill="#5051F9"/>
</svg>
