<svg width="7" height="11" viewBox="0 0 7 11" fill="none" xmlns="http://www.w3.org/2000/svg">
<path d="M0.29579 5.95004L4.53579 10.19C4.62875 10.2838 4.73935 10.3582 4.86121 10.4089C4.98307 10.4597 5.11378 10.4858 5.24579 10.4858C5.3778 10.4858 5.50851 10.4597 5.63037 10.4089C5.75223 10.3582 5.86283 10.2838 5.95579 10.19C6.14204 10.0027 6.24658 9.74923 6.24658 9.48504C6.24658 9.22086 6.14204 8.9674 5.95579 8.78004L2.41579 5.24004L5.95579 1.70004C6.14204 1.51268 6.24658 1.25923 6.24658 0.995041C6.24658 0.730855 6.14204 0.477403 5.95579 0.290041C5.86235 0.19736 5.75153 0.124035 5.6297 0.0742702C5.50786 0.0245056 5.3774 -0.000718931 5.24579 4.19617e-05C5.11418 -0.000718931 4.98372 0.0245056 4.86188 0.0742702C4.74005 0.124035 4.62923 0.19736 4.53579 0.290041L0.29579 4.53004C0.202061 4.623 0.127667 4.73361 0.0768986 4.85546C0.0261299 4.97732 -8.58307e-06 5.10803 -8.58307e-06 5.24004C-8.58307e-06 5.37205 0.0261299 5.50276 0.0768986 5.62462C0.127667 5.74648 0.202061 5.85708 0.29579 5.95004Z" fill="white"/>
</svg>
