<svg width="7" height="11" viewBox="0 0 7 11" fill="none" xmlns="http://www.w3.org/2000/svg">
<path d="M5.95079 4.5358L1.71079 0.295798C1.61783 0.20207 1.50723 0.127675 1.38537 0.0769067C1.26351 0.026138 1.1328 0 1.00079 0C0.868781 0 0.738075 0.026138 0.616216 0.0769067C0.494356 0.127675 0.383755 0.20207 0.290792 0.295798C0.104542 0.483161 0 0.736612 0 1.0008C0 1.26498 0.104542 1.51844 0.290792 1.7058L3.83079 5.2458L0.290792 8.7858C0.104542 8.97316 0 9.22661 0 9.4908C0 9.75498 0.104542 10.0084 0.290792 10.1958C0.384233 10.2885 0.495049 10.3618 0.616886 10.4116C0.738724 10.4613 0.869186 10.4866 1.00079 10.4858C1.1324 10.4866 1.26286 10.4613 1.3847 10.4116C1.50654 10.3618 1.61735 10.2885 1.71079 10.1958L5.95079 5.9558C6.04452 5.86284 6.11891 5.75223 6.16968 5.63037C6.22045 5.50852 6.24659 5.37781 6.24659 5.2458C6.24659 5.11379 6.22045 4.98308 6.16968 4.86122C6.11891 4.73936 6.04452 4.62876 5.95079 4.5358Z" fill="white"/>
</svg>
