<svg width="17" height="17" viewBox="0 0 17 17" fill="none" xmlns="http://www.w3.org/2000/svg">
<path d="M16.8529 6.09774C16.7997 5.94356 16.7029 5.80814 16.5742 5.70789C16.4455 5.60765 16.2905 5.54689 16.128 5.53299L11.3318 4.83337L9.1824 0.475497C9.11338 0.332984 9.00561 0.212796 8.87144 0.128699C8.73727 0.0446028 8.58212 0 8.42378 0C8.26543 0 8.11029 0.0446028 7.97612 0.128699C7.84195 0.212796 7.73418 0.332984 7.66515 0.475497L5.51572 4.82494L0.719537 5.53299C0.563532 5.55516 0.416867 5.62062 0.296183 5.72193C0.1755 5.82325 0.0856315 5.95636 0.0367762 6.10617C-0.00794468 6.25256 -0.0119578 6.40837 0.0251674 6.55687C0.0622926 6.70537 0.139155 6.84096 0.247505 6.94908L3.72874 10.3207L2.88583 15.1085C2.85574 15.2665 2.87149 15.4299 2.93124 15.5792C2.99098 15.7286 3.09222 15.8577 3.22299 15.9514C3.35046 16.0425 3.5008 16.0963 3.65714 16.1068C3.81347 16.1172 3.96962 16.0838 4.10805 16.0104L8.42378 13.7598L12.7226 16.0188C12.8409 16.0856 12.9746 16.1204 13.1104 16.12C13.2889 16.1206 13.4631 16.0646 13.6077 15.9598C13.7385 15.8662 13.8397 15.737 13.8995 15.5877C13.9592 15.4383 13.975 15.275 13.9449 15.1169L13.102 10.3292L16.5832 6.95751C16.7049 6.85441 16.7948 6.71889 16.8426 6.56669C16.8903 6.4145 16.8939 6.25189 16.8529 6.09774ZM11.669 9.4694C11.5701 9.56501 11.4962 9.68336 11.4536 9.81413C11.411 9.94489 11.401 10.0841 11.4246 10.2196L12.0315 13.7514L8.86209 12.0656C8.74014 12.0006 8.60409 11.9667 8.46592 11.9667C8.32776 11.9667 8.19171 12.0006 8.06975 12.0656L4.90039 13.7514L5.50729 10.2196C5.53084 10.0841 5.52088 9.94489 5.47827 9.81413C5.43566 9.68336 5.3617 9.56501 5.26285 9.4694L2.7341 6.94065L6.28277 6.42648C6.41933 6.40748 6.54913 6.35528 6.66082 6.27446C6.77251 6.19363 6.86266 6.08664 6.92339 5.96287L8.42378 2.75137L10.0085 5.9713C10.0692 6.09507 10.1593 6.20206 10.271 6.28289C10.3827 6.36371 10.5125 6.41591 10.6491 6.4349L14.1977 6.94908L11.669 9.4694Z" fill="#5051F9"/>
</svg>
