<svg width="17" height="16" viewBox="0 0 17 16" fill="none" xmlns="http://www.w3.org/2000/svg">
<path fill-rule="evenodd" clip-rule="evenodd" d="M6.65349 0.712435C5.57196 0.790312 4.52474 1.1257 3.59919 1.69061C2.67365 2.25553 1.89661 3.03359 1.33292 3.95988C0.769235 4.88617 0.435234 5.93383 0.358786 7.01546C0.282339 8.09709 0.465663 9.18132 0.893464 10.1777C1.32126 11.1741 1.98114 12.0537 2.81802 12.7431C3.65491 13.4326 4.64455 13.912 5.70437 14.1412C6.76419 14.3704 7.86346 14.3429 8.91047 14.0609C9.95748 13.7788 10.9219 13.2505 11.7232 12.52L14.8468 15.2245C15.0078 15.359 15.2151 15.4249 15.4242 15.4081C15.6333 15.3912 15.8274 15.2929 15.9647 15.1343C16.102 14.9757 16.1715 14.7695 16.1583 14.5602C16.1451 14.3509 16.0501 14.1551 15.894 14.015L12.7703 11.3105C13.4867 10.2537 13.8912 9.01655 13.9373 7.74061C13.9834 6.46468 13.6694 5.20153 13.0312 4.09572C12.393 2.98991 11.4563 2.08613 10.3284 1.4878C9.20052 0.889464 7.92696 0.62076 6.65349 0.712435ZM1.95468 7.86794C1.85575 6.49237 2.30732 5.13383 3.21004 4.0912C4.11276 3.04857 5.39269 2.40725 6.76826 2.30831C8.14384 2.20938 9.50237 2.66094 10.545 3.56367C11.5876 4.46639 12.229 5.74632 12.3279 7.12189C12.4268 8.49746 11.9753 9.856 11.0725 10.8986C10.1698 11.9413 8.88988 12.5826 7.51431 12.6815C6.13874 12.7805 4.78021 12.3289 3.73757 11.4262C2.69494 10.5234 2.05362 9.24351 1.95468 7.86794Z" fill="white"/>
</svg>
